# xmcd
#
# Track frame offsets: 
#        150
#        17056
#        26989
#        40105
#        50212
#        60375
#        72028
#        81564
#        93853
#        102507
#        114075
#        124506
#        133888
#        145754
#        155826
#        169149
#        181769
#        193638
#        204118
#        217339
#
# Disc length: 3110 seconds
#
# Revision: 2
# Processed by: cddbd v1.5.1PL0 Copyright (c) Steve Scherf et al.
# Submitted via: ExactAudioCopy v0.95a5
#
DISCID=200c2414
DTITLE=Ronnie McDowell - ELVIS - A Tribute To The King
DYEAR=1997
DGENRE=
TTITLE0=Love Me Tender
TTITLE1=Got A Lot O' Livin To Do
TTITLE2=Love Me
TTITLE3=King Creole
TTITLE4=Treat Me Nice
TTITLE5=Crying In The Chapel
TTITLE6=His Latest Flame
TTITLE7=Don't
TTITLE8=You're The Devil In Disguise
TTITLE9=It Hurts Me
TTITLE10=Lawdy Miss Clawdy
TTITLE11=A Long As I Have You
TTITLE12=I Was The One
TTITLE13=My Baby Left Me
TTITLE14=One Night With You
TTITLE15=Heartbreak Hotel
TTITLE16=Mean Woman Blues
TTITLE17=A Fool Such As I
TTITLE18=One Broken Heart For Sale
TTITLE19=Tupelo's Too Far
EXTD=
EXTT0=
EXTT1=
EXTT2=
EXTT3=
EXTT4=
EXTT5=
EXTT6=
EXTT7=
EXTT8=
EXTT9=
EXTT10=
EXTT11=
EXTT12=
EXTT13=
EXTT14=
EXTT15=
EXTT16=
EXTT17=
EXTT18=
EXTT19=
PLAYORDER=
